<?xml version="1.0" encoding="UTF-8"?>
<svg xmlns="http://www.w3.org/2000/svg" xmlns:xlink="http://www.w3.org/1999/xlink" width="450pt" height="149.999998pt" viewBox="0 0 450 149.999998" version="1.2">
<defs>
<clipPath id="clip1">
  <path d="M 0 92 L 100.777344 92 L 100.777344 150 L 0 150 Z M 0 92 "/>
</clipPath>
<clipPath id="clip2">
  <path d="M 0 68 L 44 68 L 44 150 L 0 150 Z M 0 68 "/>
</clipPath>
<clipPath id="clip3">
  <path d="M -44.242188 34.75 L 58.59375 95.128906 L -1.027344 196.671875 L -103.859375 136.292969 Z M -44.242188 34.75 "/>
</clipPath>
<clipPath id="clip4">
  <path d="M -44.242188 34.75 L 58.59375 95.128906 L -1.027344 196.671875 L -103.859375 136.292969 Z M -44.242188 34.75 "/>
</clipPath>
<clipPath id="clip5">
  <path d="M 364 0 L 450 0 L 450 68 L 364 68 Z M 364 0 "/>
</clipPath>
<clipPath id="clip6">
  <path d="M 462.679688 -24.789062 L 474.074219 61.464844 L 370.722656 75.117188 L 359.328125 -11.136719 Z M 462.679688 -24.789062 "/>
</clipPath>
<clipPath id="clip7">
  <path d="M 462.679688 -24.789062 L 474.074219 61.464844 L 370.722656 75.117188 L 359.328125 -11.136719 Z M 462.679688 -24.789062 "/>
</clipPath>
<clipPath id="clip8">
  <path d="M 462.683594 -24.753906 L 474.085938 61.5625 L 370.558594 75.238281 L 359.15625 -11.078125 Z M 462.683594 -24.753906 "/>
</clipPath>
<clipPath id="clip9">
  <path d="M 462.683594 -24.753906 L 474.070312 61.445312 L 370.730469 75.097656 L 359.34375 -11.101562 Z M 462.683594 -24.753906 "/>
</clipPath>
<clipPath id="clip10">
  <path d="M 371 93.308594 L 450 93.308594 L 450 150 L 371 150 Z M 371 93.308594 "/>
</clipPath>
<clipPath id="clip11">
  <path d="M 427.179688 38 L 434.957031 38 L 434.957031 47.628906 L 427.179688 47.628906 Z M 427.179688 38 "/>
</clipPath>
<clipPath id="clip12">
  <path d="M 298.054688 106.867188 L 450 106.867188 L 450 150 L 298.054688 150 Z M 298.054688 106.867188 "/>
</clipPath>
<clipPath id="clip13">
  <path d="M 0 0 L 192 0 L 192 61.488281 L 0 61.488281 Z M 0 0 "/>
</clipPath>
</defs>
<g id="surface1">
<rect x="0" y="0" width="450" height="149.999998" style="fill:rgb(100%,100%,100%);fill-opacity:1;stroke:none;"/>
<rect x="0" y="0" width="450" height="149.999998" style="fill:rgb(100%,100%,100%);fill-opacity:1;stroke:none;"/>
<rect x="0" y="0" width="450" height="149.999998" style="fill:rgb(99.21875%,96.859741%,97.24884%);fill-opacity:1;stroke:none;"/>
<g clip-path="url(#clip1)" clip-rule="nonzero">
<path style=" stroke:none;fill-rule:nonzero;fill:rgb(81.568909%,50.979614%,43.528748%);fill-opacity:1;" d="M -11.074219 156.335938 C -10.816406 133.917969 -0.890625 116.632812 17.5 104.019531 C 24.183594 99.433594 31.109375 95.195312 39.171875 93.699219 C 49.324219 91.820312 58.96875 93.179688 66.320312 101.273438 C 69.261719 104.515625 71.382812 108.539062 73.652344 112.339844 C 79.445312 122.050781 82.585938 135.179688 101.390625 145.492188 C 135.726562 164.371094 167.785156 171.921875 160.75 202.40625 C 158.390625 212.660156 152.214844 220.460938 144.957031 227.632812 C 136.597656 235.890625 126.542969 241.496094 116.144531 246.628906 C 111.421875 248.929688 106.925781 251.523438 101.648438 252.304688 C 99.234375 252.535156 96.835938 252.894531 94.460938 253.386719 C 90.355469 254.304688 86.351562 255.542969 82.445312 257.105469 C 71.195312 262.105469 60.21875 261.1875 48.945312 257.011719 C 44.867188 255.480469 40.996094 253.535156 37.332031 251.175781 C 33.667969 248.816406 30.296875 246.097656 27.214844 243.019531 C 11.503906 227.679688 10.113281 216.753906 3.441406 207.71875 C 0.34375 203.460938 -2.203125 198.894531 -4.199219 194.023438 C -6.195312 189.152344 -7.582031 184.113281 -8.359375 178.90625 C -9.636719 171.4375 -11.160156 163.992188 -11.074219 156.335938 Z M -11.074219 156.335938 "/>
</g>
<path style=" stroke:none;fill-rule:evenodd;fill:rgb(87.059021%,76.078796%,72.938538%);fill-opacity:1;" d="M 91.394531 -30 C 91.878906 -29.828125 92.34375 -29.5625 92.839844 -29.496094 C 103.421875 -28.050781 112.046875 -22.988281 117.769531 -14.15625 C 123.226562 -5.734375 123.539062 3.492188 118.339844 12.402344 C 115.6875 16.953125 111.355469 19.683594 106.6875 21.875 C 103.867188 23.203125 100.96875 24.378906 98.183594 25.777344 C 93.175781 28.289062 91.097656 33.34375 93 38.585938 C 93.90625 41.082031 95.273438 43.414062 96.28125 45.878906 C 96.980469 47.585938 97.625 49.359375 97.929688 51.164062 C 98.347656 53.671875 97.160156 55.71875 95.1875 57.183594 C 85.191406 64.601562 74.300781 66.808594 62.421875 62.40625 C 55.378906 59.796875 49.28125 55.695312 43.972656 50.386719 C 41.261719 47.675781 38.480469 45.039062 35.695312 42.410156 C 34.789062 41.558594 33.777344 40.808594 32.777344 40.070312 C 29.402344 37.585938 25.867188 37.066406 21.996094 39 C 16.773438 41.613281 11.085938 43.011719 5.378906 43.480469 C -0.515625 43.960938 -6.34375 42.648438 -11.433594 39.25 C -16.453125 35.894531 -20.273438 31.441406 -22.628906 25.914062 C -26.484375 16.878906 -24.464844 8.644531 -18.476562 1.246094 C -14.484375 -3.683594 -9.183594 -7.070312 -3.570312 -9.835938 C 4.421875 -13.773438 12.96875 -15.96875 21.875 -16.34375 C 24.855469 -16.46875 27.875 -15.691406 30.875 -15.324219 C 32.195312 -15.160156 33.507812 -14.933594 34.832031 -14.839844 C 37.226562 -14.675781 39.628906 -14.519531 42.027344 -14.492188 C 46.722656 -14.429688 51.253906 -15.359375 55.539062 -17.234375 C 61.742188 -19.953125 67.878906 -22.816406 74.042969 -25.628906 C 75.503906 -26.292969 76.917969 -27.070312 78.410156 -27.652344 C 80.988281 -28.660156 83.617188 -29.488281 86.445312 -29.496094 C 87.203125 -29.496094 87.960938 -29.828125 88.714844 -30.003906 C 89.605469 -30 90.5 -30 91.394531 -30 Z M 91.394531 -30 "/>
<g clip-path="url(#clip2)" clip-rule="nonzero">
<g clip-path="url(#clip3)" clip-rule="nonzero">
<g clip-path="url(#clip4)" clip-rule="nonzero">
<path style=" stroke:none;fill-rule:nonzero;fill:rgb(63.139343%,5.879211%,9.408569%);fill-opacity:1;" d="M 31.78125 80.847656 C 31.78125 80.847656 22.65625 74.03125 6.257812 70.144531 C -18.199219 64.320312 -43.679688 75.332031 -51.773438 78.464844 C -59.863281 81.59375 -82.398438 99.921875 -79.46875 125.632812 C -76.535156 151.34375 -58.179688 163.113281 -31.703125 165.503906 C -5.230469 167.890625 16.109375 150.53125 33.984375 128.476562 C 51.859375 106.421875 42.082031 87.890625 31.78125 80.847656 Z M 32.410156 128.050781 C 15.03125 149.53125 -5.738281 166.445312 -31.441406 164.167969 C -57.148438 161.890625 -74.964844 150.4375 -77.78125 125.421875 C -80.601562 100.40625 -58.671875 82.582031 -50.816406 79.496094 C -42.957031 76.40625 -18.203125 65.703125 5.5625 71.328125 C 21.472656 75.109375 30.332031 81.722656 30.332031 81.722656 C 40.3125 88.546875 49.78125 106.585938 32.410156 128.050781 Z M 32.410156 128.050781 "/>
</g>
</g>
</g>
<g clip-path="url(#clip5)" clip-rule="nonzero">
<g clip-path="url(#clip6)" clip-rule="nonzero">
<g clip-path="url(#clip7)" clip-rule="nonzero">
<g clip-path="url(#clip8)" clip-rule="nonzero">
<g clip-path="url(#clip9)" clip-rule="nonzero">
<path style=" stroke:none;fill-rule:nonzero;fill:rgb(89.408875%,43.919373%,40.779114%);fill-opacity:1;" d="M 364.617188 28.816406 C 362.570312 13.308594 372.140625 9.296875 379.753906 1.4375 C 385.761719 -4.773438 386.34375 -11.363281 394.910156 -15.191406 C 402.574219 -18.617188 411.386719 -14.339844 418.148438 -13.972656 C 430.253906 -13.320312 457.363281 -30.417969 463.765625 -12.921875 C 468.089844 -1.097656 459.433594 9.421875 461.109375 22.109375 C 463.128906 37.414062 474.398438 52.507812 449.390625 62.550781 C 435.390625 68.171875 417.242188 70.863281 411.902344 56.082031 C 405.261719 37.714844 403 25.578125 395.863281 28.890625 C 388.425781 32.347656 397.265625 57.535156 381.488281 58.460938 C 372.472656 58.988281 365.71875 37.132812 364.617188 28.816406 "/>
</g>
</g>
</g>
</g>
</g>
<g clip-path="url(#clip10)" clip-rule="nonzero">
<path style=" stroke:none;fill-rule:nonzero;fill:rgb(91.369629%,70.199585%,63.919067%);fill-opacity:1;" d="M 409.269531 93.609375 C 408.957031 93.5625 408.644531 93.488281 408.324219 93.46875 C 405.859375 93.296875 403.453125 93.746094 401.628906 95.394531 C 400.136719 96.835938 398.863281 98.453125 397.816406 100.246094 C 396.832031 102.007812 395.949219 103.824219 395.171875 105.6875 C 393.839844 108.507812 392.804688 111.496094 390.769531 113.929688 C 389.546875 115.53125 388.191406 117.011719 386.703125 118.371094 C 384.894531 119.753906 383.011719 121.023438 381.058594 122.1875 C 379.207031 123.40625 377.5625 124.746094 377.160156 127.148438 C 377.085938 127.609375 376.484375 128.007812 376.089844 128.394531 C 375.648438 128.820312 375.113281 129.15625 374.710938 129.613281 C 373.382812 131.144531 372.878906 133.066406 372.359375 134.960938 C 371.644531 137.578125 370.902344 140.214844 371.519531 142.957031 C 371.898438 144.777344 372.402344 146.566406 373.023438 148.316406 C 373.542969 149.816406 374.316406 151.171875 375.34375 152.378906 C 376.375 153.589844 377.585938 154.570312 378.980469 155.320312 C 383.800781 157.867188 389.027344 158.90625 394.460938 159.035156 C 397.378906 159.007812 400.277344 159.265625 403.144531 159.808594 C 405.878906 160.355469 408.421875 161.371094 410.777344 162.863281 C 413.136719 164.355469 415.144531 166.21875 416.8125 168.457031 C 418.628906 170.871094 420.492188 173.246094 422.371094 175.609375 C 424.667969 178.488281 427.304688 181.011719 430.273438 183.1875 C 430.894531 183.667969 431.574219 184.058594 432.304688 184.355469 C 433.035156 184.652344 433.789062 184.84375 434.574219 184.929688 C 435.355469 185.019531 436.136719 185 436.914062 184.871094 C 437.691406 184.742188 438.4375 184.511719 439.152344 184.179688 C 442.753906 182.648438 445.957031 180.441406 448.007812 176.941406 C 448.683594 175.75 449.292969 174.523438 449.835938 173.265625 C 450.527344 171.828125 451.125 170.355469 451.632812 168.84375 C 452.617188 165.609375 453.492188 162.359375 454.953125 159.269531 C 455.742188 157.550781 456.773438 155.988281 458.042969 154.585938 C 459.316406 153.183594 460.765625 152.003906 462.398438 151.050781 C 462.875 150.699219 463.40625 150.464844 463.988281 150.347656 C 465.460938 150.238281 466.710938 149.546875 468.050781 149.0625 C 471.296875 147.972656 474.628906 147.457031 478.054688 147.523438 C 484.292969 147.460938 490.398438 146.519531 496.371094 144.703125 C 498.132812 144.203125 499.710938 143.351562 501.097656 142.152344 C 502.222656 141.261719 502.941406 140.113281 503.257812 138.714844 C 503.625 136.738281 503.484375 134.800781 502.832031 132.898438 C 501.808594 129.730469 499.851562 127.15625 497.550781 124.867188 C 493.800781 121.082031 489.441406 118.230469 484.476562 116.304688 C 480.492188 114.710938 476.359375 113.960938 472.070312 114.058594 C 467.410156 114.25 462.753906 114.195312 458.101562 113.894531 C 454.195312 113.5 450.332031 112.855469 446.511719 111.964844 C 444.191406 111.414062 441.914062 110.734375 439.671875 109.925781 C 438.832031 109.597656 438.023438 109.207031 437.246094 108.75 C 436.777344 108.503906 436.355469 108.15625 435.871094 107.953125 C 432.152344 106.40625 429.082031 103.90625 425.984375 101.414062 C 424.125 99.839844 422.148438 98.433594 420.050781 97.199219 C 416.707031 95.34375 413.191406 93.808594 409.269531 93.609375 Z M 409.269531 93.609375 "/>
</g>
<path style=" stroke:none;fill-rule:nonzero;fill:rgb(63.139343%,5.879211%,9.408569%);fill-opacity:1;" d="M 396.589844 14.171875 C 396.511719 15.300781 396.449219 16.433594 396.347656 17.5625 C 396.25 18.664062 395.878906 18.996094 394.753906 19.160156 C 394.367188 19.210938 393.992188 19.351562 393.609375 19.457031 C 391.867188 19.921875 390.714844 19.335938 390.484375 17.539062 C 390.183594 15.226562 390.140625 12.878906 390.042969 10.546875 C 390.023438 10.078125 390.238281 9.578125 390.433594 9.136719 C 390.878906 8.113281 391.839844 7.886719 392.808594 8.449219 C 393.203125 8.683594 393.703125 8.742188 394.144531 8.886719 C 394.332031 8.945312 394.558594 8.984375 394.6875 9.113281 C 395.542969 9.953125 396.515625 10.726562 396.523438 12.09375 C 396.527344 12.785156 396.523438 13.476562 396.523438 14.167969 C 396.542969 14.171875 396.566406 14.171875 396.589844 14.171875 "/>
<path style=" stroke:none;fill-rule:nonzero;fill:rgb(63.139343%,5.879211%,9.408569%);fill-opacity:1;" d="M 408.023438 29.441406 C 407.988281 27.664062 408.644531 27.140625 410.089844 27.5625 C 410.953125 27.8125 411.984375 27.945312 412.578125 28.511719 C 413.585938 29.457031 414.539062 30.539062 414.203125 32.246094 C 413.964844 33.433594 414.125 34.707031 414.191406 35.9375 C 414.238281 36.679688 414.152344 37.320312 413.542969 37.796875 C 412.929688 38.277344 412.335938 37.984375 411.734375 37.722656 C 411.566406 37.644531 411.359375 37.59375 411.179688 37.609375 C 409.695312 37.730469 408.730469 36.96875 408.585938 35.492188 C 408.375 33.378906 408.191406 31.261719 408.023438 29.441406 "/>
<g clip-path="url(#clip11)" clip-rule="nonzero">
<path style=" stroke:none;fill-rule:nonzero;fill:rgb(63.139343%,5.879211%,9.408569%);fill-opacity:1;" d="M 431.886719 38.058594 C 433.050781 37.996094 433.847656 38.695312 434.128906 40.070312 C 434.398438 41.375 434.671875 42.683594 434.933594 43.992188 C 435.101562 44.828125 434.433594 45.597656 433.578125 45.589844 C 433.410156 45.589844 433.199219 45.578125 433.085938 45.667969 C 432.457031 46.164062 431.832031 46.671875 431.234375 47.207031 C 430.621094 47.753906 429.890625 47.890625 429.320312 47.324219 C 428.835938 46.847656 428.367188 46.222656 428.199219 45.582031 C 427.875 44.378906 427.71875 43.117188 427.59375 41.871094 C 427.53125 41.269531 427.613281 40.597656 428.433594 40.433594 C 428.476562 40.425781 428.550781 40.394531 428.554688 40.367188 C 428.789062 39.144531 430.316406 39.339844 430.789062 38.328125 C 430.890625 38.117188 431.503906 38.144531 431.886719 38.058594 "/>
</g>
<path style=" stroke:none;fill-rule:nonzero;fill:rgb(63.139343%,5.879211%,9.408569%);fill-opacity:1;" d="M 425.78125 15.574219 C 426.203125 15.496094 426.964844 15.339844 427.730469 15.238281 C 428.097656 15.1875 428.472656 15.21875 428.839844 15.242188 C 430.046875 15.320312 430.582031 15.792969 430.761719 16.988281 C 430.9375 18.160156 431.101562 19.332031 431.246094 20.507812 C 431.378906 21.621094 430.894531 22.082031 429.808594 22.273438 C 429.234375 22.371094 428.652344 22.761719 428.1875 23.152344 C 427.699219 23.566406 427.308594 24.222656 426.582031 23.9375 C 425.839844 23.644531 425.0625 23.289062 424.921875 22.324219 C 424.65625 20.492188 424.328125 18.667969 424.125 16.832031 C 424.019531 15.902344 424.488281 15.535156 425.78125 15.574219 "/>
<path style=" stroke:none;fill-rule:nonzero;fill:rgb(63.139343%,5.879211%,9.408569%);fill-opacity:1;" d="M 420.472656 -1.332031 C 420.414062 -0.964844 420.425781 -0.492188 420.253906 -0.113281 C 420.109375 0.199219 419.753906 0.429688 419.464844 0.652344 C 419.117188 0.925781 418.726562 1.136719 418.363281 1.390625 C 416.390625 2.785156 414.957031 2.351562 414.324219 0.046875 C 413.945312 -1.328125 413.757812 -2.761719 413.585938 -4.175781 C 413.414062 -5.582031 413.890625 -5.9375 415.238281 -5.644531 C 415.773438 -5.527344 416.339844 -5.570312 416.882812 -5.476562 C 417.644531 -5.339844 418.398438 -5.148438 419.15625 -4.976562 C 419.726562 -4.847656 420.046875 -4.460938 420.136719 -3.902344 C 420.261719 -3.078125 420.355469 -2.242188 420.472656 -1.332031 "/>
<path style=" stroke:none;fill-rule:nonzero;fill:rgb(91.369629%,70.199585%,63.919067%);fill-opacity:1;" d="M 376 104.359375 C 387.511719 130.460938 382.902344 157.226562 368.894531 171.636719 C 354.890625 186.050781 315.207031 214.351562 282.359375 162.867188 C 249.511719 111.382812 321.835938 64.363281 354.320312 84.234375 C 374.410156 96.515625 376 104.359375 376 104.359375 Z M 376 104.359375 "/>
<g clip-path="url(#clip12)" clip-rule="nonzero">
<path style=" stroke:none;fill-rule:nonzero;fill:rgb(63.139343%,5.879211%,9.408569%);fill-opacity:1;" d="M 402.117188 106.867188 C 404.011719 106.914062 405.714844 107.722656 407.515625 108.148438 C 410.027344 108.71875 412.015625 110.097656 413.910156 111.808594 C 415.570312 113.375 417.085938 115.132812 418.410156 117.035156 C 419.550781 118.460938 420.589844 119.980469 421.539062 121.503906 C 422.4375 123.070312 423.90625 123.878906 425.234375 124.78125 C 426.558594 125.777344 428.125 126.445312 429.734375 126.730469 C 431.390625 126.917969 433.003906 127.0625 434.660156 127.253906 C 436.886719 127.488281 439.066406 127.824219 441.105469 129.011719 C 441.910156 129.4375 442.761719 129.820312 443.613281 130.054688 C 445.179688 130.625 446.597656 131.578125 447.59375 132.90625 C 448.96875 134.523438 450.105469 136.375 450.910156 138.371094 C 452.238281 141.652344 451.714844 144.644531 449.253906 147.210938 C 447.308594 149.300781 444.847656 150.871094 442.144531 151.773438 C 438.59375 152.914062 434.945312 153.578125 431.203125 153.769531 C 426.9375 153.960938 422.960938 152.820312 419.074219 151.203125 C 416.421875 150.109375 413.769531 148.875 411.164062 147.734375 C 409.503906 147.070312 407.753906 146.640625 405.953125 146.402344 C 402.496094 145.832031 398.988281 145.453125 395.53125 144.742188 C 392.546875 144.121094 389.5625 143.265625 386.625 142.363281 C 382.550781 141.128906 378.523438 139.703125 374.449219 138.421875 C 369.285156 136.804688 363.980469 135.570312 358.625 134.808594 C 355.5 134.378906 352.5625 134.902344 349.578125 135.902344 C 344.746094 137.613281 340.433594 140.179688 336.078125 142.746094 C 332.429688 144.882812 329.113281 147.496094 325.703125 149.96875 C 324.707031 150.679688 323.664062 151.25 322.527344 151.773438 C 319.734375 153.105469 316.796875 153.816406 313.859375 154.625 C 311.488281 155.242188 309.121094 156.003906 306.65625 156.144531 C 304.714844 156.289062 302.679688 156.335938 300.878906 155.289062 C 298.933594 154.148438 298.320312 153.4375 298.933594 150.726562 C 299.410156 148.398438 300.355469 146.214844 301.730469 144.3125 C 302.960938 142.601562 303.910156 140.699219 305 138.847656 C 305.472656 137.992188 305.996094 137.183594 306.609375 136.375 C 307.839844 134.949219 309.167969 133.574219 310.496094 132.242188 C 310.96875 131.765625 311.488281 131.339844 312.058594 130.960938 C 316.9375 127.824219 322.148438 125.113281 327.550781 122.976562 C 332.429688 121.167969 337.449219 119.839844 342.613281 119.078125 C 348.347656 118.128906 353.890625 116.703125 359.527344 115.277344 C 363.835938 114.230469 368.195312 113.421875 372.507812 112.425781 C 378.050781 111.191406 383.59375 109.8125 389.136719 108.527344 C 392.878906 107.722656 396.667969 107.199219 400.503906 107.007812 C 400.929688 107.007812 401.308594 106.914062 401.738281 106.914062 Z M 430.683594 153.058594 C 430.871094 153.058594 431.0625 153.058594 431.25 153.058594 C 433.808594 152.675781 436.367188 152.4375 438.878906 151.917969 C 442.667969 151.203125 446.078125 149.636719 448.824219 146.6875 C 451.050781 144.265625 451.667969 141.460938 450.246094 138.515625 C 449.347656 136.710938 448.257812 135 447.074219 133.382812 C 446.171875 132.195312 444.988281 131.292969 443.566406 130.816406 C 442.621094 130.53125 441.71875 130.105469 440.820312 129.675781 C 438.878906 128.535156 436.746094 128.203125 434.566406 128.011719 C 432.910156 127.824219 431.25 127.773438 429.640625 127.488281 C 426.464844 126.96875 424.003906 125.019531 421.585938 122.976562 C 421.207031 122.546875 420.921875 122.121094 420.6875 121.597656 C 419.832031 120.21875 418.886719 118.9375 417.9375 117.605469 C 415.996094 114.945312 413.957031 112.378906 411.210938 110.570312 C 410.5 110.097656 409.742188 109.667969 408.9375 109.382812 C 407.421875 108.863281 405.859375 108.433594 404.292969 107.957031 C 403.820312 107.816406 403.394531 107.722656 402.921875 107.722656 C 398.371094 107.671875 393.824219 108.195312 389.371094 109.195312 C 383.402344 110.523438 377.480469 111.996094 371.511719 113.375 C 367.058594 114.421875 362.558594 115.324219 358.105469 116.324219 C 354.21875 117.226562 350.335938 118.175781 346.453125 119.03125 C 342.851562 119.839844 339.25 120.410156 335.699219 121.21875 C 330.628906 122.40625 325.796875 123.972656 321.296875 126.585938 C 318.691406 128.058594 316.039062 129.390625 313.433594 130.863281 C 312.4375 131.480469 311.488281 132.195312 310.636719 133.050781 C 309.640625 133.953125 308.789062 135 307.84375 135.949219 C 306.847656 137.042969 305.945312 138.324219 305.285156 139.65625 C 304.335938 141.414062 303.339844 143.171875 302.203125 144.789062 C 300.878906 146.640625 300.167969 148.78125 299.597656 150.917969 C 299.125 152.722656 299.597656 153.628906 301.210938 154.578125 C 302.394531 155.242188 303.769531 155.527344 305.09375 155.386719 C 306.894531 155.289062 308.695312 155.101562 310.496094 154.71875 C 313.433594 154.054688 316.320312 153.199219 319.210938 152.296875 C 322.007812 151.441406 324.613281 150.0625 326.886719 148.210938 C 328.640625 146.785156 330.4375 145.453125 332.335938 144.265625 C 335.414062 142.316406 338.585938 140.558594 341.714844 138.65625 C 344.839844 136.757812 348.347656 135.519531 351.851562 134.429688 C 354.503906 133.621094 357.15625 133.808594 359.859375 134.191406 C 364.40625 134.855469 368.859375 135.902344 373.265625 137.230469 C 377.527344 138.5625 381.699219 140.035156 385.960938 141.367188 C 389.324219 142.410156 392.78125 143.363281 396.242188 144.074219 C 399.511719 144.742188 402.824219 145.121094 406.09375 145.644531 C 407.941406 145.832031 409.695312 146.308594 411.402344 146.972656 C 413.957031 148.113281 416.46875 149.253906 419.074219 150.347656 C 422.769531 151.917969 426.609375 153.105469 430.683594 153.058594 Z M 343.75 155.859375 C 341.949219 155.859375 339.628906 155.859375 337.355469 155.859375 C 336.789062 155.859375 336.171875 155.8125 335.601562 155.671875 C 333.660156 155.195312 332.996094 153.34375 334.277344 151.726562 C 334.84375 151.011719 335.554688 150.347656 336.3125 149.824219 C 338.964844 147.925781 341.667969 145.976562 344.414062 144.21875 C 348.582031 141.554688 352.988281 139.609375 357.964844 139.324219 C 359.527344 139.226562 361.089844 139.371094 362.558594 139.796875 C 365.828125 140.796875 369.144531 141.554688 372.363281 142.648438 C 375.207031 143.601562 378.097656 144.40625 381.082031 145.074219 C 382.359375 145.359375 383.734375 145.453125 385.011719 145.691406 C 390.175781 146.738281 395.246094 148.210938 400.269531 149.777344 C 402.96875 150.632812 405.859375 151.011719 408.605469 151.632812 C 412.539062 152.535156 416.515625 153.390625 420.402344 154.484375 C 423.246094 155.289062 425.992188 156.382812 428.785156 157.332031 C 429.308594 157.570312 429.734375 158 429.925781 158.523438 C 430.253906 159.042969 430.066406 159.664062 429.59375 159.996094 C 429.449219 160.089844 429.308594 160.136719 429.117188 160.136719 C 428.457031 160.28125 427.746094 160.375 427.035156 160.421875 C 424.382812 160.519531 421.726562 160.183594 419.171875 159.425781 C 416.042969 158.570312 412.917969 158 409.742188 157.285156 C 407.988281 156.90625 406.238281 156.335938 404.4375 156.527344 C 403.632812 156.574219 402.824219 156.621094 402.066406 156.714844 C 399.273438 157 396.574219 156.429688 393.917969 155.621094 C 393.683594 155.574219 393.445312 155.480469 393.210938 155.386719 C 390.984375 154.339844 388.707031 154.386719 386.339844 154.671875 C 384.777344 154.769531 383.214844 154.71875 381.648438 154.433594 C 379.140625 154.101562 376.582031 153.914062 374.023438 153.722656 C 372.507812 153.578125 370.992188 153.4375 369.425781 153.34375 C 366.015625 153.199219 362.652344 153.484375 359.335938 154.292969 C 355.453125 155.101562 351.519531 155.527344 347.539062 155.574219 C 346.5 155.671875 345.363281 155.765625 343.75 155.859375 Z M 425.472656 159.851562 C 425.898438 159.851562 426.371094 159.898438 426.796875 159.851562 C 427.507812 159.804688 428.21875 159.710938 428.929688 159.566406 C 429.117188 159.519531 429.261719 159.425781 429.355469 159.234375 C 429.402344 159.042969 429.308594 158.808594 429.164062 158.664062 C 428.691406 158.285156 428.21875 157.953125 427.648438 157.714844 C 423.007812 155.859375 418.175781 154.484375 413.25 153.53125 C 409.175781 152.773438 405.148438 151.773438 401.121094 150.777344 C 399.035156 150.253906 397 149.492188 394.914062 148.875 C 390.605469 147.59375 386.246094 146.59375 381.792969 145.929688 C 379.660156 145.597656 377.527344 145.121094 375.492188 144.40625 C 371.226562 142.886719 366.820312 141.746094 362.511719 140.511719 C 360.710938 139.988281 358.863281 139.847656 357.015625 140.082031 C 352.515625 140.558594 348.488281 142.410156 344.699219 144.835938 C 341.902344 146.59375 339.25 148.542969 336.550781 150.441406 C 335.839844 150.964844 335.222656 151.582031 334.703125 152.25 C 333.851562 153.34375 334.324219 154.578125 335.648438 154.910156 C 336.171875 155.054688 336.738281 155.101562 337.261719 155.101562 C 341.242188 155.003906 345.21875 154.863281 349.199219 154.816406 C 352.515625 154.769531 355.785156 154.386719 359.003906 153.675781 C 362.511719 152.867188 366.160156 152.535156 369.757812 152.722656 C 371.984375 152.867188 374.210938 153.007812 376.4375 153.199219 C 378.003906 153.34375 379.613281 153.390625 381.175781 153.675781 C 383.023438 154.054688 384.964844 154.148438 386.859375 154.007812 C 388.851562 153.722656 390.886719 153.914062 392.78125 154.578125 C 396.097656 155.8125 399.558594 156.476562 403.15625 156.003906 C 404.199219 155.8125 405.289062 155.8125 406.332031 155.957031 C 410.453125 156.761719 414.574219 157.667969 418.695312 158.617188 C 420.96875 159.1875 423.148438 160.042969 425.472656 159.851562 Z M 381.414062 159.140625 C 384.871094 159.234375 387.855469 159.851562 390.886719 160.421875 C 394.867188 161.183594 398.894531 161.800781 402.875 162.5625 C 405.382812 163.035156 407.894531 163.652344 410.453125 164.128906 C 413.910156 164.792969 417.324219 165.601562 420.875 165.414062 C 423.339844 165.269531 425.753906 164.9375 428.21875 164.507812 C 431.582031 163.988281 434.898438 163.417969 438.214844 162.75 C 439.589844 162.464844 440.914062 162.132812 442.195312 161.660156 C 443.664062 161.136719 445.035156 160.28125 446.078125 159.09375 C 447.214844 157.855469 448.351562 156.621094 449.394531 155.339844 C 450.246094 154.246094 451.050781 153.105469 451.761719 151.917969 C 452.378906 150.824219 453.707031 150.253906 454.890625 150.632812 C 456.167969 151.0625 457.070312 152.203125 457.164062 153.578125 C 457.210938 154.484375 457.210938 155.339844 457.070312 156.242188 C 456.738281 158.238281 456.925781 160.136719 457.210938 162.085938 C 457.542969 164.652344 457.117188 167.265625 456.027344 169.59375 C 453.230469 175.773438 448.589844 179.8125 442.335938 181.996094 C 441.007812 182.425781 439.589844 182.617188 438.167969 182.425781 C 436.367188 182.234375 434.519531 182.332031 432.71875 182.046875 C 430.160156 181.664062 427.648438 181.140625 425.140625 180.621094 C 418.460938 179.195312 411.828125 177.386719 405.289062 175.203125 C 401.214844 173.824219 397.1875 172.113281 393.351562 170.164062 C 390.082031 168.550781 386.71875 167.265625 383.214844 166.269531 C 381.699219 165.839844 380.230469 165.316406 378.761719 164.746094 C 378.003906 164.414062 377.246094 163.988281 376.628906 163.464844 C 375.632812 162.65625 375.679688 161.5625 376.628906 160.753906 C 377.953125 159.710938 379.660156 159.09375 381.414062 159.140625 Z M 381.414062 159.851562 C 379.800781 159.804688 378.238281 160.328125 377.054688 161.421875 C 376.4375 161.992188 376.390625 162.515625 377.054688 163.085938 C 377.480469 163.464844 377.953125 163.75 378.476562 163.988281 C 380.179688 164.652344 381.933594 165.316406 383.6875 165.792969 C 387.144531 166.789062 390.554688 168.121094 393.777344 169.738281 C 397.425781 171.589844 401.214844 173.160156 405.101562 174.488281 C 411.683594 176.675781 418.410156 178.527344 425.1875 180 C 427.699219 180.523438 430.207031 181.046875 432.765625 181.425781 C 434.566406 181.664062 436.367188 181.761719 438.167969 181.761719 C 439.257812 181.855469 440.296875 181.761719 441.386719 181.523438 C 447.972656 179.480469 452.757812 175.25 455.503906 168.785156 C 456.5 166.457031 456.785156 163.890625 456.359375 161.421875 C 456.074219 159.804688 456.027344 158.140625 456.261719 156.476562 C 456.40625 155.574219 456.453125 154.671875 456.40625 153.769531 C 456.359375 152.675781 455.648438 151.726562 454.605469 151.347656 C 453.707031 151.0625 452.949219 151.394531 452.191406 152.4375 C 451.714844 153.152344 451.335938 153.960938 450.769531 154.625 C 449.394531 156.335938 447.925781 157.953125 446.457031 159.566406 C 445.320312 160.851562 443.898438 161.800781 442.289062 162.324219 C 440.960938 162.800781 439.589844 163.179688 438.167969 163.417969 C 434.851562 164.035156 431.488281 164.558594 428.171875 165.222656 C 425.707031 165.746094 423.195312 166.03125 420.6875 166.125 C 417.324219 166.171875 414.101562 165.507812 410.832031 164.890625 C 408.132812 164.414062 405.429688 163.75 402.730469 163.226562 C 398.75 162.464844 394.726562 161.847656 390.699219 161.089844 C 387.808594 160.519531 384.871094 159.949219 381.414062 159.851562 Z M 427.414062 147.640625 C 423.007812 147.449219 418.695312 146.5 414.667969 144.789062 C 410.972656 143.21875 407.136719 142.125 403.207031 141.367188 C 400.550781 140.9375 397.945312 140.558594 395.292969 140.035156 C 392.5 139.464844 389.847656 138.371094 387.429688 136.851562 C 383.6875 134.378906 379.519531 132.574219 375.160156 131.433594 C 373.265625 131.054688 371.371094 130.816406 369.476562 130.675781 C 367.058594 130.390625 364.59375 130.152344 362.179688 129.914062 C 359.382812 129.628906 356.589844 129.675781 353.792969 130.007812 C 352.230469 130.199219 350.714844 130.339844 349.152344 130.4375 C 347.160156 130.578125 345.171875 131.054688 343.324219 131.816406 C 339.0625 133.382812 334.75 135 330.867188 137.328125 C 327.550781 139.371094 324.28125 141.507812 321.011719 143.648438 C 318.878906 145.074219 316.796875 146.546875 314.664062 147.972656 C 312.296875 149.585938 309.640625 150.726562 306.847656 151.296875 C 306.183594 151.394531 305.472656 151.347656 304.855469 151.109375 C 303.863281 150.777344 303.71875 149.730469 304.382812 148.921875 C 304.714844 148.542969 305.09375 148.164062 305.472656 147.828125 C 308.503906 144.789062 311.632812 141.792969 314.617188 138.65625 C 317.601562 135.519531 321.105469 133.238281 325.039062 131.433594 C 330.488281 128.820312 336.171875 126.824219 341.761719 124.640625 C 346.59375 122.785156 351.613281 121.644531 356.636719 120.457031 C 360.851562 119.507812 365.164062 118.839844 369.476562 118.460938 C 372.507812 118.128906 375.492188 117.605469 378.523438 117.179688 C 380.941406 116.84375 383.355469 116.609375 385.722656 116.273438 C 390.320312 115.65625 394.867188 114.5625 399.226562 112.996094 C 400.550781 112.519531 402.019531 112.472656 403.394531 112.949219 C 405.242188 113.566406 406.996094 114.421875 408.605469 115.5625 C 410.785156 117.082031 412.0625 119.269531 412.917969 121.738281 C 413.105469 122.359375 413.296875 122.976562 413.578125 123.59375 C 414.433594 125.636719 415.949219 127.300781 417.890625 128.296875 C 421.539062 130.339844 425.519531 131.765625 429.640625 132.480469 C 431.390625 132.71875 433.144531 132.8125 434.898438 132.8125 C 436.933594 132.859375 438.972656 132.859375 440.960938 133.382812 C 443.992188 134.191406 444.941406 135.757812 444.277344 138.894531 C 443.664062 141.746094 442.144531 144.027344 439.589844 145.359375 C 438.402344 145.976562 437.03125 146.167969 435.75 146.453125 C 433.761719 146.832031 431.769531 147.164062 429.78125 147.449219 C 428.976562 147.542969 428.21875 147.542969 427.414062 147.640625 Z M 427.414062 146.925781 C 428.171875 146.878906 428.929688 146.878906 429.6875 146.738281 C 431.867188 146.402344 434.046875 146.023438 436.222656 145.644531 C 437.265625 145.5 438.261719 145.214844 439.210938 144.789062 C 441.53125 143.550781 443.140625 141.320312 443.613281 138.753906 C 444.183594 136.140625 443.425781 134.855469 440.867188 134.144531 C 439.019531 133.621094 437.125 133.667969 435.230469 133.574219 C 433.335938 133.574219 431.488281 133.476562 429.59375 133.238281 C 425.328125 132.527344 421.253906 131.054688 417.464844 128.964844 C 415.523438 127.964844 414.007812 126.300781 413.105469 124.304688 C 412.773438 123.59375 412.539062 122.785156 412.253906 122.023438 C 411.402344 119.554688 410.074219 117.320312 407.800781 115.941406 C 406.332031 115.085938 404.769531 114.328125 403.207031 113.707031 C 401.972656 113.234375 400.597656 113.234375 399.367188 113.707031 C 394.914062 115.277344 390.367188 116.371094 385.675781 117.035156 C 383.308594 117.367188 380.890625 117.605469 378.523438 117.9375 C 375.492188 118.367188 372.460938 118.886719 369.425781 119.222656 C 364.925781 119.648438 360.472656 120.363281 356.066406 121.359375 C 351.566406 122.453125 347.066406 123.402344 342.707031 125.066406 C 336.359375 127.441406 329.917969 129.722656 323.808594 132.71875 C 320.917969 134.144531 318.167969 135.855469 315.894531 138.324219 C 312.53125 142.03125 308.929688 145.5 305.285156 148.921875 C 305.140625 149.066406 305 149.207031 304.90625 149.351562 C 304.527344 149.824219 304.621094 150.253906 305.1875 150.441406 C 305.710938 150.585938 306.230469 150.632812 306.753906 150.585938 C 308.882812 150.207031 310.921875 149.398438 312.769531 148.210938 C 315.28125 146.6875 317.695312 144.976562 320.113281 143.363281 C 323.378906 141.222656 326.601562 139.039062 329.917969 137.042969 C 333.992188 134.570312 338.445312 132.8125 342.898438 131.195312 C 344.699219 130.53125 346.5 129.867188 348.441406 129.722656 C 349.910156 129.628906 351.332031 129.535156 352.800781 129.34375 C 356.019531 128.914062 359.289062 128.867188 362.511719 129.152344 C 364.972656 129.390625 367.4375 129.628906 369.902344 129.914062 C 371.558594 130.054688 373.21875 130.246094 374.828125 130.578125 C 379.28125 131.625 383.496094 133.429688 387.335938 135.902344 C 390.273438 137.753906 393.589844 139.039062 397.046875 139.65625 C 399.367188 140.082031 401.738281 140.367188 404.058594 140.796875 C 407.988281 141.554688 411.78125 142.746094 415.476562 144.265625 C 419.265625 145.882812 423.339844 146.738281 427.414062 146.925781 Z M 366.539062 147.402344 C 366.585938 147.640625 366.632812 147.925781 366.679688 148.210938 C 366.820312 148.636719 366.585938 149.113281 366.160156 149.253906 C 366.113281 149.253906 366.113281 149.253906 366.0625 149.300781 C 365.351562 149.539062 364.644531 149.683594 363.886719 149.730469 C 360.617188 149.730469 357.347656 150.207031 354.125 150.632812 C 352.5625 150.777344 350.953125 150.871094 349.386719 150.824219 C 348.914062 150.777344 348.488281 150.585938 348.109375 150.253906 C 347.683594 149.96875 347.539062 149.398438 347.824219 148.921875 C 347.921875 148.78125 348.015625 148.683594 348.109375 148.636719 C 348.25 148.542969 348.347656 148.445312 348.488281 148.398438 C 352.609375 146.355469 356.96875 144.789062 361.421875 143.648438 C 363.554688 143.078125 366.113281 144.359375 367.199219 146.355469 C 367.34375 146.59375 367.390625 146.878906 367.296875 147.164062 C 367.199219 147.308594 366.820312 147.308594 366.539062 147.402344 Z M 350.574219 150.253906 C 351.851562 150.109375 352.941406 150.0625 353.984375 149.921875 C 357.207031 149.445312 360.472656 148.96875 363.742188 149.015625 C 364.074219 149.015625 364.40625 148.96875 364.738281 148.921875 C 365.921875 148.730469 365.875 148.730469 365.78125 147.542969 C 365.78125 147.355469 365.921875 147.023438 366.0625 147.023438 C 366.585938 146.925781 366.585938 146.6875 366.253906 146.402344 C 365.828125 145.929688 365.351562 145.5 364.878906 145.121094 C 363.933594 144.265625 362.558594 143.980469 361.375 144.40625 C 359.8125 144.882812 358.199219 145.359375 356.636719 145.832031 C 353.9375 146.6875 351.332031 147.734375 348.820312 149.015625 C 348.628906 149.160156 348.394531 149.351562 348.25 149.539062 C 348.441406 149.683594 348.628906 149.921875 348.867188 150.015625 C 349.53125 150.0625 350.148438 150.15625 350.574219 150.253906 Z M 435.277344 177.101562 C 433.808594 177.199219 431.535156 176.675781 429.308594 176.058594 C 427.507812 175.535156 425.707031 174.964844 423.90625 174.25 C 423.292969 174.015625 422.722656 173.632812 422.25 173.109375 C 421.253906 172.113281 421.347656 170.925781 422.484375 170.117188 C 423.527344 169.308594 424.761719 169.121094 425.992188 168.882812 C 428.265625 168.5 430.585938 168.40625 432.910156 168.644531 C 435.84375 168.929688 438.640625 168.214844 441.4375 167.3125 C 443.851562 166.503906 445.839844 165.03125 447.738281 163.367188 C 448.164062 162.941406 448.542969 162.464844 448.875 161.992188 C 450.011719 160.421875 451.148438 158.808594 452.285156 157.191406 C 452.710938 156.574219 453.46875 156.335938 453.894531 156.527344 C 454.652344 156.90625 455.03125 157.714844 454.796875 158.523438 C 454.367188 160.234375 453.894531 161.894531 453.421875 163.605469 C 453.042969 165.175781 452.617188 166.742188 452.09375 168.265625 C 450.769531 172.019531 447.640625 174.917969 443.757812 175.914062 C 441.246094 176.769531 438.6875 177.054688 435.277344 177.101562 Z M 435.703125 176.390625 C 438.167969 176.390625 440.628906 176.058594 443.046875 175.488281 C 447.261719 174.394531 450.199219 171.78125 451.621094 167.550781 C 452.140625 166.078125 452.378906 164.507812 452.804688 162.941406 C 453.230469 161.375 453.65625 159.898438 454.085938 158.378906 C 454.226562 157.953125 454.039062 157.476562 453.609375 157.285156 C 453.277344 157.097656 452.996094 157.332031 452.757812 157.667969 C 451.761719 159.09375 450.722656 160.519531 449.726562 161.945312 C 449.253906 162.65625 448.730469 163.367188 448.117188 163.988281 C 446.171875 165.746094 444.089844 167.21875 441.625 168.074219 C 438.78125 169.023438 435.894531 169.738281 432.8125 169.453125 C 430.585938 169.214844 428.3125 169.308594 426.085938 169.691406 C 424.949219 169.878906 423.859375 170.070312 422.914062 170.78125 C 422.105469 171.398438 422.011719 172.113281 422.769531 172.777344 C 423.339844 173.300781 424.050781 173.679688 424.761719 174.015625 C 428.21875 175.34375 431.960938 176.199219 435.703125 176.390625 Z M 403.015625 117.605469 C 403.773438 117.464844 404.53125 117.984375 405.101562 119.078125 C 405.90625 120.648438 406.710938 122.214844 407.5625 123.734375 C 407.847656 124.304688 408.179688 124.828125 408.605469 125.351562 C 409.980469 126.96875 411.402344 128.582031 412.773438 130.199219 C 415.285156 133.050781 418.269531 135.140625 421.917969 135.996094 C 424.191406 136.566406 426.511719 136.996094 428.785156 137.515625 C 431.675781 138.183594 434.519531 138.847656 437.410156 139.5625 C 437.597656 139.609375 437.691406 139.894531 437.835938 140.035156 C 437.882812 140.082031 437.882812 140.179688 437.929688 140.273438 C 438.5 140.796875 438.546875 141.414062 437.882812 141.792969 C 437.21875 142.269531 436.460938 142.601562 435.65625 142.839844 C 434.660156 143.078125 433.617188 142.980469 432.671875 142.601562 C 429.355469 141.269531 425.800781 140.652344 422.25 140.75 C 418.695312 140.796875 415.285156 139.847656 411.921875 138.800781 C 409.503906 138.039062 407.230469 136.996094 404.816406 136.1875 C 401.6875 135.1875 398.46875 134.523438 395.292969 133.714844 C 393.257812 133.191406 391.265625 132.574219 389.5625 131.246094 C 389.136719 130.910156 388.757812 130.53125 388.425781 130.105469 C 387.144531 128.535156 387.382812 126.253906 388.945312 124.972656 C 388.992188 124.925781 389.039062 124.875 389.085938 124.875 C 389.65625 124.449219 390.414062 124.210938 391.03125 123.785156 C 391.691406 123.402344 392.308594 122.929688 392.878906 122.359375 C 395.484375 119.316406 398.753906 117.890625 403.015625 117.605469 Z M 437.503906 140.273438 C 437.410156 140.226562 437.363281 140.226562 437.265625 140.179688 C 434.425781 139.511719 431.582031 138.800781 428.691406 138.183594 C 426.9375 137.800781 425.089844 137.566406 423.339844 137.136719 C 420.496094 136.375 417.652344 135.519531 415.378906 133.523438 C 414.289062 132.574219 413.199219 131.578125 412.207031 130.53125 C 410.785156 129.011719 409.410156 127.394531 408.085938 125.828125 C 407.660156 125.304688 407.328125 124.78125 407.042969 124.164062 C 406.191406 122.59375 405.335938 120.980469 404.484375 119.363281 C 404.199219 118.652344 403.441406 118.222656 402.683594 118.367188 C 399.082031 118.554688 395.957031 119.839844 393.589844 122.691406 C 392.925781 123.449219 392.121094 124.070312 391.21875 124.449219 C 390.605469 124.6875 390.035156 125.019531 389.515625 125.445312 C 388.28125 126.398438 388.046875 128.203125 388.992188 129.4375 C 388.992188 129.484375 389.039062 129.484375 389.039062 129.535156 C 389.609375 130.246094 390.320312 130.863281 391.125 131.292969 C 392.546875 131.957031 394.015625 132.527344 395.53125 132.957031 C 398.421875 133.761719 401.359375 134.378906 404.246094 135.1875 C 405.859375 135.664062 407.421875 136.472656 409.03125 137.042969 C 411.210938 137.800781 413.390625 138.5625 415.617188 139.085938 C 417.605469 139.511719 419.644531 139.847656 421.679688 139.988281 C 423.574219 140.179688 425.472656 140.226562 427.367188 140.367188 C 429.402344 140.558594 431.296875 141.320312 433.238281 141.9375 C 434.472656 142.363281 435.796875 142.316406 436.933594 141.699219 C 437.265625 141.414062 437.882812 141.175781 437.503906 140.273438 Z M 379.945312 122.929688 C 379.375 122.976562 378.808594 123.023438 378.238281 123.070312 C 377.671875 123.117188 377.339844 123.355469 377.292969 123.972656 C 377.195312 125.730469 378.382812 127.300781 380.132812 127.679688 C 380.65625 127.726562 381.222656 127.773438 381.792969 127.726562 C 381.980469 127.726562 382.125 127.488281 382.3125 127.347656 C 382.171875 127.203125 381.980469 127.109375 381.792969 127.0625 C 381.175781 127.015625 380.558594 127.015625 379.945312 126.917969 C 379.566406 126.871094 379.234375 126.730469 378.949219 126.445312 C 378.570312 125.730469 378.285156 125.019531 378.050781 124.257812 C 378.050781 124.070312 378.144531 123.925781 378.332031 123.832031 C 379.660156 123.546875 381.035156 123.59375 382.3125 124.019531 C 383.167969 124.355469 383.59375 125.351562 383.261719 126.207031 C 383.214844 126.300781 383.167969 126.398438 383.117188 126.445312 C 383.070312 126.632812 383.070312 126.871094 383.070312 127.0625 C 383.261719 126.96875 383.59375 126.917969 383.6875 126.730469 C 384.398438 125.589844 383.925781 123.878906 382.738281 123.402344 C 381.839844 123.117188 380.9375 122.929688 379.992188 122.738281 Z M 379.945312 122.929688 "/>
</g>
<g clip-path="url(#clip13)" clip-rule="nonzero">
<path style=" stroke:none;fill-rule:nonzero;fill:rgb(67.83905%,47.839355%,41.958618%);fill-opacity:1;" d="M 123.5 -31.511719 C 125.832031 -31.457031 127.929688 -30.464844 130.144531 -29.9375 C 133.230469 -29.238281 135.679688 -27.546875 138.011719 -25.445312 C 140.050781 -23.519531 141.914062 -21.363281 143.546875 -19.027344 C 144.945312 -17.277344 146.226562 -15.410156 147.390625 -13.542969 C 148.5 -11.617188 150.304688 -10.625 151.9375 -9.519531 C 153.570312 -8.292969 155.492188 -7.476562 157.472656 -7.125 C 159.511719 -6.890625 161.496094 -6.71875 163.535156 -6.484375 C 166.273438 -6.191406 168.953125 -5.785156 171.460938 -4.324219 C 172.449219 -3.800781 173.5 -3.332031 174.546875 -3.042969 C 176.472656 -2.339844 178.21875 -1.175781 179.445312 0.457031 C 181.132812 2.441406 182.53125 4.71875 183.523438 7.167969 C 185.15625 11.195312 184.511719 14.871094 181.484375 18.019531 C 179.09375 20.585938 176.0625 22.511719 172.742188 23.621094 C 168.371094 25.023438 163.882812 25.839844 159.28125 26.070312 C 154.035156 26.304688 149.140625 24.90625 144.363281 22.921875 C 141.097656 21.578125 137.835938 20.0625 134.628906 18.664062 C 132.589844 17.84375 130.433594 17.320312 128.21875 17.027344 C 123.964844 16.328125 119.652344 15.863281 115.398438 14.988281 C 111.726562 14.226562 108.054688 13.179688 104.445312 12.070312 C 99.433594 10.550781 94.476562 8.800781 89.464844 7.226562 C 83.113281 5.242188 76.589844 3.726562 70.003906 2.792969 C 66.15625 2.269531 62.542969 2.910156 58.871094 4.132812 C 52.929688 6.234375 47.625 9.386719 42.265625 12.535156 C 37.777344 15.160156 33.699219 18.371094 29.5 21.40625 C 28.277344 22.28125 26.996094 22.980469 25.597656 23.621094 C 22.160156 25.253906 18.546875 26.128906 14.933594 27.121094 C 12.019531 27.878906 9.105469 28.8125 6.074219 28.988281 C 3.6875 29.164062 1.179688 29.222656 -1.035156 27.9375 C -3.421875 26.539062 -4.179688 25.664062 -3.421875 22.335938 C -2.839844 19.480469 -1.675781 16.796875 0.015625 14.460938 C 1.53125 12.359375 2.695312 10.027344 4.035156 7.75 C 4.617188 6.703125 5.257812 5.710938 6.015625 4.71875 C 7.53125 2.96875 9.164062 1.277344 10.796875 -0.359375 C 11.378906 -0.941406 12.019531 -1.464844 12.71875 -1.933594 C 18.722656 -5.785156 25.132812 -9.109375 31.773438 -11.734375 C 37.777344 -13.953125 43.953125 -15.585938 50.304688 -16.519531 C 57.355469 -17.6875 64.175781 -19.4375 71.109375 -21.1875 C 76.414062 -22.46875 81.773438 -23.460938 87.078125 -24.6875 C 93.894531 -26.203125 100.714844 -27.894531 107.53125 -29.472656 C 112.136719 -30.464844 116.796875 -31.105469 121.519531 -31.339844 C 122.042969 -31.339844 122.507812 -31.457031 123.03125 -31.457031 Z M 158.640625 25.195312 C 158.871094 25.195312 159.105469 25.195312 159.339844 25.195312 C 162.484375 24.730469 165.632812 24.4375 168.722656 23.796875 C 173.382812 22.921875 177.578125 20.996094 180.957031 17.378906 C 183.699219 14.402344 184.457031 10.960938 182.707031 7.34375 C 181.601562 5.125 180.257812 3.027344 178.800781 1.042969 C 177.695312 -0.417969 176.238281 -1.523438 174.488281 -2.109375 C 173.324219 -2.457031 172.21875 -2.984375 171.109375 -3.507812 C 168.722656 -4.910156 166.097656 -5.316406 163.417969 -5.550781 C 161.378906 -5.785156 159.339844 -5.84375 157.355469 -6.191406 C 153.453125 -6.835938 150.421875 -9.226562 147.449219 -11.734375 C 146.984375 -12.261719 146.632812 -12.785156 146.34375 -13.425781 C 145.292969 -15.117188 144.128906 -16.695312 142.964844 -18.328125 C 140.574219 -21.59375 138.066406 -24.746094 134.6875 -26.960938 C 133.8125 -27.546875 132.882812 -28.070312 131.890625 -28.421875 C 130.027344 -29.0625 128.101562 -29.589844 126.179688 -30.171875 C 125.597656 -30.347656 125.074219 -30.464844 124.488281 -30.464844 C 118.894531 -30.523438 113.300781 -29.878906 107.824219 -28.65625 C 100.480469 -27.019531 93.195312 -25.210938 85.855469 -23.519531 C 80.375 -22.238281 74.839844 -21.128906 69.363281 -19.902344 C 64.582031 -18.792969 59.804688 -17.628906 55.027344 -16.578125 C 50.597656 -15.585938 46.167969 -14.886719 41.796875 -13.894531 C 35.5625 -12.433594 29.617188 -10.507812 24.082031 -7.300781 C 20.878906 -5.492188 17.613281 -3.859375 14.410156 -2.050781 C 13.183594 -1.292969 12.019531 -0.417969 10.96875 0.632812 C 9.746094 1.742188 8.699219 3.027344 7.53125 4.191406 C 6.308594 5.535156 5.199219 7.109375 4.386719 8.742188 C 3.21875 10.902344 1.996094 13.0625 0.597656 15.042969 C -1.035156 17.320312 -1.910156 19.945312 -2.609375 22.570312 C -3.191406 24.789062 -2.609375 25.898438 -0.625 27.0625 C 0.832031 27.878906 2.519531 28.230469 4.152344 28.054688 C 6.367188 27.9375 8.582031 27.707031 10.796875 27.238281 C 14.410156 26.421875 17.964844 25.371094 21.519531 24.261719 C 24.957031 23.214844 28.160156 21.519531 30.957031 19.246094 C 33.113281 17.496094 35.328125 15.863281 37.660156 14.402344 C 41.449219 12.011719 45.351562 9.851562 49.199219 7.519531 C 53.042969 5.183594 57.355469 3.667969 61.667969 2.324219 C 64.933594 1.335938 68.195312 1.566406 71.519531 2.035156 C 77.113281 2.851562 82.589844 4.132812 88.011719 5.769531 C 93.253906 7.402344 98.382812 9.210938 103.628906 10.84375 C 107.765625 12.128906 112.019531 13.292969 116.273438 14.167969 C 120.292969 14.988281 124.375 15.453125 128.394531 16.09375 C 130.667969 16.328125 132.824219 16.910156 134.921875 17.730469 C 138.066406 19.128906 141.15625 20.527344 144.363281 21.871094 C 148.90625 23.796875 153.628906 25.253906 158.640625 25.195312 Z M 51.703125 28.640625 C 49.488281 28.640625 46.632812 28.640625 43.835938 28.640625 C 43.136719 28.640625 42.378906 28.582031 41.679688 28.40625 C 39.292969 27.820312 38.476562 25.546875 40.050781 23.5625 C 40.75 22.6875 41.621094 21.871094 42.554688 21.230469 C 45.820312 18.894531 49.140625 16.503906 52.519531 14.34375 C 57.648438 11.078125 63.066406 8.683594 69.1875 8.335938 C 71.109375 8.21875 73.035156 8.394531 74.839844 8.917969 C 78.859375 10.144531 82.941406 11.078125 86.902344 12.417969 C 90.398438 13.585938 93.953125 14.578125 97.625 15.394531 C 99.199219 15.746094 100.890625 15.863281 102.460938 16.152344 C 108.8125 17.4375 115.050781 19.246094 121.226562 21.171875 C 124.546875 22.222656 128.101562 22.6875 131.484375 23.445312 C 136.320312 24.554688 141.214844 25.605469 145.992188 26.945312 C 149.488281 27.9375 152.871094 29.28125 156.308594 30.449219 C 156.949219 30.738281 157.472656 31.265625 157.707031 31.90625 C 158.113281 32.546875 157.882812 33.304688 157.300781 33.714844 C 157.125 33.832031 156.949219 33.890625 156.714844 33.890625 C 155.898438 34.066406 155.027344 34.183594 154.152344 34.238281 C 150.890625 34.355469 147.625 33.949219 144.476562 33.015625 C 140.632812 31.964844 136.785156 31.265625 132.882812 30.390625 C 130.726562 29.921875 128.570312 29.222656 126.355469 29.457031 C 125.363281 29.515625 124.375 29.574219 123.441406 29.6875 C 120.003906 30.039062 116.679688 29.339844 113.417969 28.347656 C 113.125 28.289062 112.835938 28.171875 112.542969 28.054688 C 109.804688 26.773438 107.007812 26.832031 104.09375 27.179688 C 102.171875 27.296875 100.246094 27.238281 98.324219 26.890625 C 95.234375 26.480469 92.089844 26.246094 88.941406 26.011719 C 87.078125 25.839844 85.210938 25.664062 83.289062 25.546875 C 79.09375 25.371094 74.957031 25.722656 70.878906 26.714844 C 66.097656 27.707031 61.261719 28.230469 56.367188 28.289062 C 55.085938 28.40625 53.6875 28.523438 51.703125 28.640625 Z M 152.230469 33.539062 C 152.753906 33.539062 153.335938 33.597656 153.859375 33.539062 C 154.734375 33.480469 155.609375 33.363281 156.484375 33.191406 C 156.714844 33.132812 156.890625 33.015625 157.007812 32.78125 C 157.066406 32.546875 156.949219 32.257812 156.773438 32.082031 C 156.191406 31.613281 155.609375 31.207031 154.910156 30.914062 C 149.199219 28.640625 143.253906 26.945312 137.195312 25.78125 C 132.183594 24.847656 127.230469 23.621094 122.277344 22.394531 C 119.710938 21.753906 117.207031 20.820312 114.640625 20.0625 C 109.339844 18.488281 103.976562 17.261719 98.5 16.445312 C 95.878906 16.035156 93.253906 15.453125 90.75 14.578125 C 85.503906 12.710938 80.085938 11.3125 74.78125 9.792969 C 72.566406 9.152344 70.292969 8.976562 68.023438 9.269531 C 62.484375 9.851562 57.53125 12.128906 52.871094 15.101562 C 49.433594 17.261719 46.167969 19.652344 42.847656 21.988281 C 41.972656 22.628906 41.214844 23.386719 40.574219 24.203125 C 39.523438 25.546875 40.109375 27.0625 41.738281 27.472656 C 42.378906 27.648438 43.078125 27.707031 43.722656 27.707031 C 48.617188 27.589844 53.511719 27.414062 58.40625 27.355469 C 62.484375 27.296875 66.507812 26.832031 70.46875 25.957031 C 74.78125 24.964844 79.269531 24.554688 83.699219 24.789062 C 86.4375 24.964844 89.175781 25.136719 91.914062 25.371094 C 93.835938 25.546875 95.820312 25.605469 97.742188 25.957031 C 100.015625 26.421875 102.402344 26.539062 104.734375 26.363281 C 107.183594 26.011719 109.6875 26.246094 112.019531 27.0625 C 116.097656 28.582031 120.351562 29.398438 124.78125 28.8125 C 126.0625 28.582031 127.402344 28.582031 128.6875 28.753906 C 133.753906 29.746094 138.824219 30.855469 143.894531 32.023438 C 146.691406 32.722656 149.375 33.773438 152.230469 33.539062 Z M 98.035156 32.664062 C 102.289062 32.78125 105.957031 33.539062 109.6875 34.238281 C 114.582031 35.171875 119.535156 35.933594 124.433594 36.867188 C 127.519531 37.449219 130.609375 38.207031 133.753906 38.789062 C 138.011719 39.609375 142.207031 40.597656 146.578125 40.367188 C 149.605469 40.191406 152.578125 39.78125 155.609375 39.257812 C 159.746094 38.617188 163.824219 37.914062 167.90625 37.097656 C 169.59375 36.75 171.226562 36.339844 172.800781 35.757812 C 174.605469 35.113281 176.296875 34.066406 177.578125 32.605469 C 178.976562 31.089844 180.375 29.574219 181.65625 27.996094 C 182.707031 26.65625 183.699219 25.253906 184.570312 23.796875 C 185.328125 22.453125 186.960938 21.753906 188.417969 22.222656 C 189.992188 22.746094 191.097656 24.148438 191.214844 25.839844 C 191.273438 26.945312 191.273438 27.996094 191.097656 29.105469 C 190.691406 31.554688 190.921875 33.890625 191.273438 36.28125 C 191.679688 39.433594 191.15625 42.640625 189.816406 45.5 C 186.378906 53.085938 180.667969 58.042969 172.976562 60.726562 C 171.34375 61.253906 169.59375 61.488281 167.847656 61.253906 C 165.632812 61.019531 163.359375 61.136719 161.144531 60.785156 C 158 60.320312 154.910156 59.679688 151.820312 59.035156 C 143.605469 57.285156 135.445312 55.070312 127.402344 52.386719 C 122.390625 50.691406 117.4375 48.59375 112.71875 46.199219 C 108.699219 44.21875 104.558594 42.640625 100.246094 41.417969 C 98.382812 40.890625 96.578125 40.25 94.769531 39.550781 C 93.835938 39.140625 92.90625 38.617188 92.148438 37.972656 C 90.921875 36.980469 90.980469 35.640625 92.148438 34.648438 C 93.777344 33.363281 95.878906 32.605469 98.035156 32.664062 Z M 98.035156 33.539062 C 96.050781 33.480469 94.128906 34.125 92.671875 35.464844 C 91.914062 36.164062 91.855469 36.808594 92.671875 37.507812 C 93.195312 37.972656 93.777344 38.324219 94.421875 38.617188 C 96.519531 39.433594 98.675781 40.25 100.832031 40.832031 C 105.085938 42.058594 109.28125 43.691406 113.242188 45.675781 C 117.730469 47.949219 122.390625 49.875 127.171875 51.511719 C 135.269531 54.195312 143.546875 56.46875 151.878906 58.277344 C 154.96875 58.917969 158.054688 59.5625 161.203125 60.027344 C 163.417969 60.320312 165.632812 60.4375 167.847656 60.4375 C 169.1875 60.554688 170.46875 60.4375 171.808594 60.144531 C 179.910156 57.636719 185.796875 52.441406 189.175781 44.507812 C 190.398438 41.648438 190.75 38.5 190.222656 35.464844 C 189.875 33.480469 189.816406 31.441406 190.109375 29.398438 C 190.28125 28.289062 190.339844 27.179688 190.28125 26.070312 C 190.222656 24.730469 189.351562 23.5625 188.066406 23.097656 C 186.960938 22.746094 186.027344 23.15625 185.097656 24.4375 C 184.511719 25.3125 184.046875 26.304688 183.347656 27.121094 C 181.65625 29.222656 179.851562 31.207031 178.042969 33.191406 C 176.644531 34.765625 174.898438 35.933594 172.917969 36.574219 C 171.285156 37.15625 169.59375 37.625 167.847656 37.914062 C 163.765625 38.675781 159.628906 39.316406 155.550781 40.132812 C 152.519531 40.773438 149.433594 41.125 146.34375 41.242188 C 142.207031 41.300781 138.242188 40.484375 134.222656 39.722656 C 130.898438 39.140625 127.578125 38.324219 124.257812 37.683594 C 119.363281 36.75 114.410156 35.992188 109.457031 35.058594 C 105.898438 34.355469 102.289062 33.65625 98.035156 33.539062 Z M 154.617188 18.546875 C 149.199219 18.3125 143.894531 17.144531 138.941406 15.042969 C 134.398438 13.121094 129.675781 11.777344 124.839844 10.84375 C 121.578125 10.320312 118.371094 9.851562 115.109375 9.210938 C 111.667969 8.511719 108.40625 7.167969 105.433594 5.300781 C 100.832031 2.269531 95.703125 0.0507812 90.339844 -1.351562 C 88.011719 -1.816406 85.679688 -2.109375 83.347656 -2.28125 C 80.375 -2.632812 77.34375 -2.925781 74.375 -3.214844 C 70.933594 -3.566406 67.496094 -3.507812 64.058594 -3.101562 C 62.136719 -2.867188 60.269531 -2.691406 58.347656 -2.574219 C 55.898438 -2.398438 53.453125 -1.816406 51.179688 -0.882812 C 45.933594 1.042969 40.632812 3.027344 35.855469 5.886719 C 31.773438 8.394531 27.753906 11.019531 23.734375 13.644531 C 21.109375 15.394531 18.546875 17.203125 15.921875 18.953125 C 13.011719 20.9375 9.746094 22.339844 6.308594 23.039062 C 5.492188 23.15625 4.617188 23.097656 3.859375 22.804688 C 2.636719 22.394531 2.460938 21.113281 3.277344 20.121094 C 3.6875 19.652344 4.152344 19.1875 4.617188 18.777344 C 8.347656 15.042969 12.195312 11.371094 15.867188 7.519531 C 19.535156 3.667969 23.847656 0.867188 28.6875 -1.351562 C 35.386719 -4.558594 42.378906 -7.007812 49.257812 -9.691406 C 55.199219 -11.96875 61.378906 -13.367188 67.554688 -14.828125 C 72.742188 -15.992188 78.042969 -16.8125 83.347656 -17.277344 C 87.078125 -17.6875 90.75 -18.328125 94.476562 -18.851562 C 97.449219 -19.261719 100.421875 -19.554688 103.335938 -19.960938 C 108.988281 -20.71875 114.582031 -22.0625 119.945312 -23.988281 C 121.578125 -24.570312 123.382812 -24.628906 125.074219 -24.046875 C 127.34375 -23.285156 129.5 -22.238281 131.484375 -20.835938 C 134.164062 -18.96875 135.738281 -16.285156 136.785156 -13.25 C 137.019531 -12.492188 137.253906 -11.734375 137.601562 -10.976562 C 138.652344 -8.46875 140.515625 -6.425781 142.90625 -5.199219 C 147.390625 -2.691406 152.289062 -0.941406 157.355469 -0.0664062 C 159.511719 0.226562 161.667969 0.34375 163.824219 0.34375 C 166.332031 0.402344 168.835938 0.402344 171.285156 1.042969 C 175.015625 2.035156 176.179688 3.960938 175.363281 7.808594 C 174.605469 11.3125 172.742188 14.113281 169.59375 15.746094 C 168.136719 16.503906 166.449219 16.738281 164.875 17.085938 C 162.425781 17.554688 159.980469 17.960938 157.53125 18.3125 C 156.542969 18.429688 155.609375 18.429688 154.617188 18.546875 Z M 154.617188 17.671875 C 155.550781 17.613281 156.484375 17.613281 157.414062 17.4375 C 160.097656 17.027344 162.777344 16.5625 165.457031 16.09375 C 166.738281 15.921875 167.964844 15.570312 169.128906 15.042969 C 171.984375 13.527344 173.964844 10.785156 174.546875 7.636719 C 175.246094 4.425781 174.316406 2.851562 171.167969 1.976562 C 168.894531 1.335938 166.566406 1.390625 164.234375 1.277344 C 161.902344 1.277344 159.628906 1.160156 157.300781 0.867188 C 152.054688 -0.0078125 147.042969 -1.816406 142.378906 -4.382812 C 139.992188 -5.609375 138.125 -7.652344 137.019531 -10.101562 C 136.609375 -10.976562 136.320312 -11.96875 135.96875 -12.902344 C 134.921875 -15.9375 133.289062 -18.679688 130.492188 -20.371094 C 128.6875 -21.421875 126.761719 -22.351562 124.839844 -23.113281 C 123.324219 -23.695312 121.632812 -23.695312 120.121094 -23.113281 C 114.640625 -21.1875 109.046875 -19.84375 103.277344 -19.027344 C 100.363281 -18.621094 97.390625 -18.328125 94.476562 -17.917969 C 90.75 -17.394531 87.019531 -16.753906 83.289062 -16.34375 C 77.753906 -15.820312 72.277344 -14.945312 66.855469 -13.71875 C 61.320312 -12.375 55.785156 -11.210938 50.421875 -9.167969 C 42.613281 -6.25 34.6875 -3.449219 27.171875 0.226562 C 23.617188 1.976562 20.234375 4.078125 17.4375 7.109375 C 13.300781 11.660156 8.871094 15.921875 4.386719 20.121094 C 4.210938 20.296875 4.035156 20.472656 3.917969 20.644531 C 3.453125 21.230469 3.570312 21.753906 4.269531 21.988281 C 4.910156 22.164062 5.550781 22.222656 6.191406 22.164062 C 8.8125 21.695312 11.320312 20.703125 13.59375 19.246094 C 16.679688 17.378906 19.652344 15.277344 22.625 13.292969 C 26.644531 10.667969 30.609375 7.984375 34.6875 5.535156 C 39.699219 2.5 45.175781 0.34375 50.65625 -1.640625 C 52.871094 -2.457031 55.085938 -3.273438 57.472656 -3.449219 C 59.28125 -3.566406 61.027344 -3.683594 62.835938 -3.917969 C 66.796875 -4.441406 70.820312 -4.5 74.78125 -4.148438 C 77.8125 -3.859375 80.84375 -3.566406 83.871094 -3.214844 C 85.910156 -3.042969 87.953125 -2.808594 89.933594 -2.398438 C 95.410156 -1.117188 100.597656 1.101562 105.316406 4.132812 C 108.929688 6.410156 113.011719 7.984375 117.265625 8.742188 C 120.121094 9.269531 123.035156 9.617188 125.890625 10.144531 C 130.726562 11.078125 135.386719 12.535156 139.933594 14.402344 C 144.59375 16.386719 149.605469 17.4375 154.617188 17.671875 Z M 79.734375 18.253906 C 79.792969 18.546875 79.851562 18.894531 79.910156 19.246094 C 80.085938 19.769531 79.792969 20.355469 79.269531 20.527344 C 79.210938 20.527344 79.210938 20.527344 79.152344 20.585938 C 78.277344 20.878906 77.402344 21.054688 76.472656 21.113281 C 72.449219 21.113281 68.429688 21.695312 64.464844 22.222656 C 62.542969 22.394531 60.5625 22.511719 58.640625 22.453125 C 58.054688 22.394531 57.53125 22.164062 57.066406 21.753906 C 56.542969 21.40625 56.367188 20.703125 56.714844 20.121094 C 56.832031 19.945312 56.949219 19.828125 57.066406 19.769531 C 57.242188 19.652344 57.355469 19.539062 57.53125 19.480469 C 62.601562 16.96875 67.964844 15.042969 73.441406 13.644531 C 76.0625 12.945312 79.210938 14.519531 80.550781 16.96875 C 80.726562 17.261719 80.785156 17.613281 80.667969 17.960938 C 80.550781 18.136719 80.085938 18.136719 79.734375 18.253906 Z M 60.097656 21.753906 C 61.667969 21.578125 63.011719 21.519531 64.292969 21.347656 C 68.253906 20.761719 72.277344 20.179688 76.296875 20.238281 C 76.703125 20.238281 77.113281 20.179688 77.519531 20.121094 C 78.976562 19.886719 78.917969 19.886719 78.800781 18.429688 C 78.800781 18.195312 78.976562 17.785156 79.152344 17.785156 C 79.792969 17.671875 79.792969 17.378906 79.386719 17.027344 C 78.859375 16.445312 78.277344 15.921875 77.695312 15.453125 C 76.53125 14.402344 74.839844 14.054688 73.382812 14.578125 C 71.460938 15.160156 69.476562 15.746094 67.554688 16.328125 C 64.234375 17.378906 61.027344 18.664062 57.941406 20.238281 C 57.707031 20.414062 57.414062 20.644531 57.242188 20.878906 C 57.472656 21.054688 57.707031 21.347656 58 21.460938 C 58.8125 21.519531 59.570312 21.636719 60.097656 21.753906 Z M 164.292969 54.71875 C 162.484375 54.835938 159.6875 54.195312 156.949219 53.433594 C 154.734375 52.792969 152.519531 52.09375 150.304688 51.21875 C 149.546875 50.925781 148.847656 50.460938 148.265625 49.816406 C 147.042969 48.59375 147.160156 47.132812 148.558594 46.140625 C 149.839844 45.148438 151.355469 44.917969 152.871094 44.625 C 155.667969 44.160156 158.523438 44.042969 161.378906 44.332031 C 164.992188 44.683594 168.429688 43.808594 171.867188 42.699219 C 174.839844 41.707031 177.289062 39.898438 179.617188 37.855469 C 180.144531 37.332031 180.609375 36.75 181.015625 36.164062 C 182.414062 34.238281 183.8125 32.257812 185.210938 30.273438 C 185.738281 29.515625 186.667969 29.222656 187.195312 29.457031 C 188.125 29.921875 188.59375 30.914062 188.300781 31.90625 C 187.777344 34.007812 187.195312 36.046875 186.613281 38.148438 C 186.144531 40.074219 185.621094 42 184.980469 43.867188 C 183.347656 48.476562 179.5 52.035156 174.722656 53.261719 C 171.632812 54.308594 168.488281 54.660156 164.292969 54.71875 Z M 164.816406 53.84375 C 167.847656 53.84375 170.878906 53.433594 173.847656 52.734375 C 179.035156 51.394531 182.648438 48.183594 184.398438 42.992188 C 185.039062 41.183594 185.328125 39.257812 185.855469 37.332031 C 186.378906 35.40625 186.902344 33.597656 187.425781 31.730469 C 187.601562 31.207031 187.367188 30.621094 186.84375 30.390625 C 186.4375 30.15625 186.085938 30.449219 185.796875 30.855469 C 184.570312 32.605469 183.289062 34.355469 182.066406 36.105469 C 181.484375 36.980469 180.84375 37.855469 180.085938 38.617188 C 177.695312 40.773438 175.132812 42.582031 172.101562 43.632812 C 168.605469 44.800781 165.050781 45.675781 161.261719 45.324219 C 158.523438 45.035156 155.726562 45.148438 152.988281 45.617188 C 151.589844 45.851562 150.246094 46.082031 149.082031 46.957031 C 148.089844 47.71875 147.976562 48.59375 148.90625 49.410156 C 149.605469 50.050781 150.480469 50.519531 151.355469 50.925781 C 155.609375 52.558594 160.210938 53.609375 164.816406 53.84375 Z M 124.605469 -18.328125 C 125.539062 -18.503906 126.472656 -17.859375 127.171875 -16.519531 C 128.160156 -14.59375 129.152344 -12.667969 130.199219 -10.800781 C 130.550781 -10.101562 130.957031 -9.460938 131.484375 -8.816406 C 133.171875 -6.835938 134.921875 -4.851562 136.609375 -2.867188 C 139.699219 0.632812 143.371094 3.199219 147.859375 4.25 C 150.65625 4.953125 153.511719 5.476562 156.308594 6.117188 C 159.863281 6.933594 163.359375 7.75 166.914062 8.628906 C 167.148438 8.683594 167.265625 9.035156 167.4375 9.210938 C 167.496094 9.269531 167.496094 9.386719 167.554688 9.503906 C 168.253906 10.144531 168.3125 10.902344 167.496094 11.371094 C 166.679688 11.953125 165.75 12.359375 164.757812 12.652344 C 163.535156 12.945312 162.253906 12.828125 161.085938 12.359375 C 157.007812 10.726562 152.636719 9.96875 148.265625 10.085938 C 143.894531 10.144531 139.699219 8.976562 135.5625 7.695312 C 132.589844 6.761719 129.792969 5.476562 126.820312 4.484375 C 122.976562 3.257812 119.011719 2.441406 115.109375 1.449219 C 112.601562 0.808594 110.15625 0.0507812 108.054688 -1.582031 C 107.53125 -1.992188 107.066406 -2.457031 106.65625 -2.984375 C 105.085938 -4.910156 105.375 -7.710938 107.300781 -9.285156 C 107.355469 -9.34375 107.414062 -9.402344 107.472656 -9.402344 C 108.171875 -9.925781 109.105469 -10.21875 109.863281 -10.742188 C 110.679688 -11.210938 111.4375 -11.792969 112.136719 -12.492188 C 115.339844 -16.226562 119.363281 -17.976562 124.605469 -18.328125 Z M 167.03125 9.503906 C 166.914062 9.445312 166.855469 9.445312 166.738281 9.386719 C 163.242188 8.570312 159.746094 7.695312 156.191406 6.933594 C 154.035156 6.46875 151.761719 6.175781 149.605469 5.652344 C 146.109375 4.71875 142.613281 3.667969 139.816406 1.21875 C 138.476562 0.0507812 137.136719 -1.175781 135.910156 -2.457031 C 134.164062 -4.324219 132.472656 -6.308594 130.84375 -8.234375 C 130.316406 -8.875 129.910156 -9.519531 129.558594 -10.277344 C 128.511719 -12.203125 127.460938 -14.183594 126.414062 -16.167969 C 126.0625 -17.042969 125.132812 -17.570312 124.199219 -17.394531 C 119.769531 -17.160156 115.921875 -15.585938 113.011719 -12.085938 C 112.195312 -11.152344 111.203125 -10.394531 110.097656 -9.925781 C 109.339844 -9.632812 108.640625 -9.226562 108 -8.699219 C 106.484375 -7.535156 106.191406 -5.316406 107.355469 -3.800781 C 107.355469 -3.742188 107.414062 -3.742188 107.414062 -3.683594 C 108.113281 -2.808594 108.988281 -2.050781 109.980469 -1.523438 C 111.726562 -0.707031 113.535156 -0.0078125 115.398438 0.515625 C 118.953125 1.507812 122.566406 2.269531 126.121094 3.257812 C 128.101562 3.84375 130.027344 4.835938 132.007812 5.535156 C 134.6875 6.46875 137.367188 7.402344 140.109375 8.042969 C 142.554688 8.570312 145.0625 8.976562 147.566406 9.152344 C 149.898438 9.386719 152.230469 9.445312 154.558594 9.617188 C 157.066406 9.851562 159.398438 10.785156 161.785156 11.542969 C 163.300781 12.070312 164.933594 12.011719 166.332031 11.253906 C 166.738281 10.902344 167.496094 10.609375 167.03125 9.503906 Z M 96.226562 -11.792969 C 95.527344 -11.734375 94.828125 -11.675781 94.128906 -11.617188 C 93.429688 -11.558594 93.023438 -11.269531 92.964844 -10.507812 C 92.847656 -8.351562 94.304688 -6.425781 96.460938 -5.957031 C 97.101562 -5.902344 97.800781 -5.84375 98.5 -5.902344 C 98.734375 -5.902344 98.90625 -6.191406 99.140625 -6.367188 C 98.964844 -6.542969 98.734375 -6.660156 98.5 -6.71875 C 97.742188 -6.777344 96.984375 -6.777344 96.226562 -6.890625 C 95.761719 -6.949219 95.351562 -7.125 95.003906 -7.476562 C 94.535156 -8.351562 94.1875 -9.226562 93.894531 -10.160156 C 93.894531 -10.394531 94.011719 -10.566406 94.246094 -10.683594 C 95.878906 -11.035156 97.566406 -10.976562 99.140625 -10.453125 C 100.1875 -10.042969 100.714844 -8.816406 100.304688 -7.765625 C 100.246094 -7.652344 100.1875 -7.535156 100.132812 -7.476562 C 100.074219 -7.242188 100.074219 -6.949219 100.074219 -6.71875 C 100.304688 -6.835938 100.714844 -6.890625 100.832031 -7.125 C 101.703125 -8.527344 101.121094 -10.625 99.664062 -11.210938 C 98.558594 -11.558594 97.449219 -11.792969 96.285156 -12.027344 Z M 96.226562 -11.792969 "/>
</g>
</g>
</svg>
