<svg id="Layer_1" data-name="Layer 1" xmlns="http://www.w3.org/2000/svg" viewBox="0 0 792 612"><defs><style>.cls-1,.cls-2{fill:#fcd8de;}.cls-1{fill-rule:evenodd;}.cls-3{font-size:100px;fill:#c74476;font-family:Gotu-Regular, Gotu;letter-spacing:0.51em;}.cls-4{letter-spacing:0.52em;}.cls-5{letter-spacing:0.51em;}.cls-6{letter-spacing:0.45em;}.cls-7{letter-spacing:0.44em;}.cls-8{letter-spacing:0.49em;}</style></defs><path class="cls-1" d="M436.73,120.43h88.39L701.88,337.24a2.4,2.4,0,0,0,3.69,0c1.95-2,0-216.81,0-216.81H724V451s-.58,17.75-18.41,7.11c-17.4-10.37-250.42-298.56-250.42-298.56L451.46,156V458.09H436.73Z"/><path id="Path_15" data-name="Path 15" class="cls-2" d="M107.38,227.12c3.28,84.35,40.37,176.45,127.21,200s133-22.4,133-22.4l10.06,4.5s-111.88,92.88-252,31-79-226.9-79-226.9c36.17-73.13,79.07-95.27,144.21-108.78C285.13,89,335.25,125.74,367.54,157.2c18.46,18-2.18,44.3-2.18,44.3S355.6,228,305,229.44c-52.31,1.48-32-39.3-32-39.3s36.12-58.64-20.5-73.71c-61.49-16.38-106.2,27.1-106.2,27.1S108,173.12,107.38,227.12Z"/><text class="cls-3" transform="translate(31.92 261.71) scale(0.97 1)">CHRIS<tspan class="cls-4" x="565.89" y="0">T</tspan><tspan x="680.89" y="0">Y</tspan><tspan class="cls-5"><tspan x="-22.75" y="120">N</tspan><tspan class="cls-6" x="105.55" y="120">A</tspan><tspan class="cls-7" x="218.25" y="120">V</tspan><tspan x="333.85" y="120">AR</tspan><tspan class="cls-8" x="571.54" y="120">R</tspan><tspan x="688.54" y="120">O</tspan></tspan></text></svg>